# Blender 4.5.5 LTS
# www.blender.org
o Foutian
v -13.043051 -0.087294 19.805981
v -13.043051 0.525549 19.805981
v -12.419928 -0.087294 19.867353
v -12.419928 0.525549 19.867353
v -11.820751 -0.087294 20.049112
v -11.820751 0.525549 20.049112
v -11.268547 -0.087294 20.344271
v -11.268547 0.525549 20.344271
v -10.784535 -0.087294 20.741489
v -10.784535 0.525549 20.741489
v -10.387318 -0.087294 21.225500
v -10.387318 0.525549 21.225500
v -10.092158 -0.087294 21.777704
v -10.092158 0.525549 21.777704
v -9.910400 -0.087294 22.376881
v -9.910400 0.525549 22.376881
v -9.849028 -0.087294 23.000004
v -9.849028 0.525549 23.000004
v -9.910400 -0.087294 23.623127
v -9.910400 0.525549 23.623127
v -10.092158 -0.087294 24.222303
v -10.092158 0.525549 24.222303
v -10.387318 -0.087294 24.774508
v -10.387318 0.525549 24.774508
v -10.784535 -0.087294 25.258518
v -10.784535 0.525549 25.258518
v -11.268547 -0.087294 25.655737
v -11.268547 0.525549 25.655737
v -11.820751 -0.087294 25.950897
v -11.820751 0.525549 25.950897
v -12.419928 -0.087294 26.132654
v -12.419928 0.525549 26.132654
v -13.043051 -0.087294 26.194027
v -13.043051 0.525549 26.194027
v -13.666174 -0.087294 26.132654
v -13.666174 0.525549 26.132654
v -14.265350 -0.087294 25.950897
v -14.265350 0.525549 25.950897
v -14.817554 -0.087294 25.655737
v -14.817554 0.525549 25.655737
v -15.301566 -0.087294 25.258518
v -15.301566 0.525549 25.258518
v -15.698784 -0.087294 24.774508
v -15.698784 0.525549 24.774508
v -15.993943 -0.087294 24.222303
v -15.993943 0.525549 24.222303
v -16.175701 -0.087294 23.623127
v -16.175701 0.525549 23.623127
v -16.237074 -0.087294 23.000004
v -16.237074 0.525549 23.000004
v -16.175701 -0.087294 22.376881
v -16.175701 0.525549 22.376881
v -15.993943 -0.087294 21.777704
v -15.993943 0.525549 21.777704
v -15.698784 -0.087294 21.225500
v -15.698784 0.525549 21.225500
v -15.301566 -0.087294 20.741489
v -15.301566 0.525549 20.741489
v -14.817554 -0.087294 20.344271
v -14.817554 0.525549 20.344271
v -14.265350 -0.087294 20.049112
v -14.265350 0.525549 20.049112
v -13.666174 -0.087294 19.867353
v -13.666174 0.525549 19.867353
v -12.475712 0.581442 20.147797
v -13.043051 0.581442 20.091919
v -11.930175 0.581442 20.313284
v -11.427405 0.581442 20.582020
v -10.986724 0.581442 20.943678
v -10.625067 0.581442 21.384359
v -10.356331 0.581442 21.887129
v -10.190844 0.581442 22.432665
v -10.134966 0.581442 23.000004
v -10.190844 0.581442 23.567343
v -10.356331 0.581442 24.112881
v -10.625067 0.581442 24.615650
v -10.986724 0.581442 25.056332
v -11.427405 0.581442 25.417988
v -11.930175 0.581442 25.686726
v -12.475712 0.581442 25.852211
v -13.043051 0.581442 25.908089
v -13.610390 0.581442 25.852211
v -14.155927 0.581442 25.686726
v -14.658696 0.581442 25.417988
v -15.099377 0.581442 25.056332
v -15.461035 0.581442 24.615650
v -15.729771 0.581442 24.112881
v -15.895258 0.581442 23.567343
v -15.951136 0.581442 23.000004
v -15.895258 0.581442 22.432665
v -15.729771 0.581442 21.887129
v -15.461035 0.581442 21.384359
v -15.099377 0.581442 20.943678
v -14.658696 0.581442 20.582020
v -14.155927 0.581442 20.313284
v -13.610390 0.581442 20.147797
v -12.475712 0.238220 20.147797
v -13.043051 0.238220 20.091919
v -11.930175 0.238220 20.313284
v -11.427405 0.238220 20.582020
v -10.986724 0.238220 20.943678
v -10.625067 0.238220 21.384359
v -10.356331 0.238220 21.887129
v -10.190844 0.238220 22.432665
v -10.134966 0.238220 23.000004
v -10.190844 0.238220 23.567343
v -10.356331 0.238220 24.112881
v -10.625067 0.238220 24.615650
v -10.986724 0.238220 25.056332
v -11.427405 0.238220 25.417988
v -11.930175 0.238220 25.686726
v -12.475712 0.238220 25.852211
v -13.043051 0.238220 25.908089
v -13.610390 0.238220 25.852211
v -14.155927 0.238220 25.686726
v -14.658696 0.238220 25.417988
v -15.099377 0.238220 25.056332
v -15.461035 0.238220 24.615650
v -15.729771 0.238220 24.112881
v -15.895258 0.238220 23.567343
v -15.951136 0.238220 23.000004
v -15.895258 0.238220 22.432665
v -15.729771 0.238220 21.887129
v -15.461035 0.238220 21.384359
v -15.099377 0.238220 20.943678
v -14.658696 0.238220 20.582020
v -14.155927 0.238220 20.313284
v -13.610390 0.238220 20.147797
v -12.878983 0.102511 22.175179
v -13.043051 0.102511 22.159019
v -12.721220 0.102511 22.223036
v -12.575825 0.102511 22.300751
v -12.448385 0.102511 22.405338
v -12.343798 0.102511 22.532778
v -12.266083 0.102511 22.678173
v -12.218225 0.102511 22.835936
v -12.202066 0.102511 23.000004
v -12.218225 0.102511 23.164072
v -12.266083 0.102511 23.321835
v -12.343798 0.102511 23.467230
v -12.448385 0.102511 23.594669
v -12.575825 0.102511 23.699257
v -12.721220 0.102511 23.776972
v -12.878983 0.102511 23.824829
v -13.043051 0.102511 23.840988
v -13.207119 0.102511 23.824829
v -13.364882 0.102511 23.776972
v -13.510277 0.102511 23.699257
v -13.637717 0.102511 23.594669
v -13.742304 0.102511 23.467230
v -13.820020 0.102511 23.321835
v -13.867876 0.102511 23.164072
v -13.884035 0.102511 23.000004
v -13.867876 0.102511 22.835936
v -13.820020 0.102511 22.678173
v -13.742304 0.102511 22.532778
v -13.637717 0.102511 22.405338
v -13.510277 0.102511 22.300751
v -13.364882 0.102511 22.223036
v -13.207119 0.102511 22.175179
v -12.878983 2.399698 22.175179
v -13.043051 2.399698 22.159019
v -12.721220 2.399698 22.223036
v -12.575825 2.399698 22.300751
v -12.448385 2.399698 22.405338
v -12.343798 2.399698 22.532778
v -12.266083 2.399698 22.678173
v -12.218225 2.399698 22.835936
v -12.202066 2.399698 23.000004
v -12.218225 2.399698 23.164072
v -12.266083 2.399698 23.321835
v -12.343798 2.399698 23.467230
v -12.448385 2.399698 23.594669
v -12.575825 2.399698 23.699257
v -12.721220 2.399698 23.776972
v -12.878983 2.399698 23.824829
v -13.043051 2.399698 23.840988
v -13.207119 2.399698 23.824829
v -13.364882 2.399698 23.776972
v -13.510277 2.399698 23.699257
v -13.637717 2.399698 23.594669
v -13.742304 2.399698 23.467230
v -13.820020 2.399698 23.321835
v -13.867876 2.399698 23.164072
v -13.884035 2.399698 23.000004
v -13.867876 2.399698 22.835936
v -13.820020 2.399698 22.678173
v -13.742304 2.399698 22.532778
v -13.637717 2.399698 22.405338
v -13.510277 2.399698 22.300751
v -13.364882 2.399698 22.223036
v -13.207119 2.399698 22.175179
v -12.938059 2.527195 22.472172
v -13.043051 2.527195 22.461830
v -12.837102 2.527195 22.502796
v -12.744059 2.527195 22.552528
v -12.662506 2.527195 22.619457
v -12.595578 2.527195 22.701010
v -12.545846 2.527195 22.794054
v -12.515221 2.527195 22.895010
v -12.504880 2.527195 23.000002
v -12.515221 2.527195 23.104994
v -12.545846 2.527195 23.205952
v -12.595578 2.527195 23.298994
v -12.662506 2.527195 23.380547
v -12.744059 2.527195 23.447475
v -12.837102 2.527195 23.497208
v -12.938059 2.527195 23.527834
v -13.043051 2.527195 23.538174
v -13.148043 2.527195 23.527834
v -13.249001 2.527195 23.497208
v -13.342043 2.527195 23.447475
v -13.423595 2.527195 23.380547
v -13.490524 2.527195 23.298994
v -13.540257 2.527195 23.205952
v -13.570882 2.527195 23.104994
v -13.581223 2.527195 23.000002
v -13.570882 2.527195 22.895010
v -13.540257 2.527195 22.794054
v -13.490524 2.527195 22.701010
v -13.423595 2.527195 22.619457
v -13.342043 2.527195 22.552528
v -13.249001 2.527195 22.502796
v -13.148043 2.527195 22.472172
vn 0.0980 -0.0000 -0.9952
vn 0.2903 -0.0000 -0.9569
vn 0.4714 -0.0000 -0.8819
vn 0.6344 -0.0000 -0.7730
vn 0.7730 -0.0000 -0.6344
vn 0.8819 -0.0000 -0.4714
vn 0.9569 -0.0000 -0.2903
vn 0.9952 -0.0000 -0.0980
vn 0.9952 -0.0000 0.0980
vn 0.9569 -0.0000 0.2903
vn 0.8819 -0.0000 0.4714
vn 0.7730 -0.0000 0.6344
vn 0.6344 -0.0000 0.7730
vn 0.4714 -0.0000 0.8819
vn 0.2903 -0.0000 0.9569
vn 0.0980 -0.0000 0.9952
vn -0.0980 -0.0000 0.9952
vn -0.2903 -0.0000 0.9569
vn -0.4714 -0.0000 0.8819
vn -0.6344 -0.0000 0.7730
vn -0.7730 -0.0000 0.6344
vn -0.8819 -0.0000 0.4714
vn -0.9569 -0.0000 0.2903
vn -0.9952 -0.0000 0.0980
vn -0.9952 -0.0000 -0.0980
vn -0.9569 -0.0000 -0.2903
vn -0.8819 -0.0000 -0.4714
vn -0.7730 -0.0000 -0.6344
vn -0.6344 -0.0000 -0.7730
vn -0.4714 -0.0000 -0.8819
vn 0.1490 0.9813 -0.1223
vn -0.2903 -0.0000 -0.9569
vn -0.0980 -0.0000 -0.9952
vn 0.0909 0.9813 0.1700
vn -0.1844 0.9813 0.0559
vn 0.0189 0.9813 -0.1918
vn -0.0189 0.9813 -0.1918
vn 0.1844 0.9813 0.0559
vn -0.0909 0.9813 0.1700
vn -0.1490 0.9813 -0.1223
vn 0.1700 0.9813 -0.0909
vn 0.0559 0.9813 0.1844
vn -0.1918 0.9813 0.0189
vn 0.0559 0.9813 -0.1844
vn 0.1700 0.9813 0.0909
vn -0.1223 0.9813 0.1490
vn -0.1223 0.9813 -0.1490
vn 0.1844 0.9813 -0.0559
vn 0.0189 0.9813 0.1918
vn -0.1918 0.9813 -0.0189
vn 0.0909 0.9813 -0.1700
vn 0.1490 0.9813 0.1223
vn -0.1490 0.9813 0.1223
vn -0.0909 0.9813 -0.1700
vn 0.1918 0.9813 -0.0189
vn -0.0189 0.9813 0.1918
vn -0.1844 0.9813 -0.0559
vn 0.1223 0.9813 -0.1490
vn 0.1223 0.9813 0.1490
vn -0.1700 0.9813 0.0909
vn -0.0559 0.9813 -0.1844
vn 0.1918 0.9813 0.0189
vn -0.0559 0.9813 0.1844
vn -0.1700 0.9813 -0.0909
vn -0.0509 0.9978 -0.0418
vn 0.0630 0.9978 0.0191
vn -0.0418 0.9978 -0.0509
vn 0.0581 0.9978 0.0310
vn -0.0310 0.9978 -0.0581
vn -0.0065 0.9978 0.0655
vn 0.0509 0.9978 0.0418
vn -0.0191 0.9978 -0.0630
vn -0.0191 0.9978 0.0630
vn 0.0418 0.9978 0.0509
vn -0.0065 0.9978 -0.0655
vn -0.0310 0.9978 0.0581
vn 0.0310 0.9978 0.0581
vn 0.0065 0.9978 -0.0655
vn -0.0418 0.9978 0.0509
vn 0.0191 0.9978 0.0630
vn 0.0191 0.9978 -0.0630
vn -0.0509 0.9978 0.0418
vn 0.0065 0.9978 0.0655
vn 0.0310 0.9978 -0.0581
vn -0.0581 0.9978 0.0310
vn 0.0418 0.9978 -0.0509
vn -0.0630 0.9978 0.0191
vn 0.0509 0.9978 -0.0418
vn -0.0655 0.9978 0.0065
vn 0.0581 0.9978 -0.0310
vn -0.0655 0.9978 -0.0065
vn 0.0630 0.9978 -0.0191
vn -0.0630 0.9978 -0.0191
vn 0.0655 0.9978 -0.0065
vn -0.0581 0.9978 -0.0310
vn 0.0655 0.9978 0.0065
vn -0.1131 0.9210 0.3729
vn -0.0000 1.0000 -0.0000
vn 0.3012 0.9210 -0.2472
vn -0.0382 0.9210 -0.3878
vn -0.1837 0.9210 0.3436
vn 0.3436 0.9210 -0.1837
vn -0.2472 0.9210 0.3012
vn 0.3729 0.9210 -0.1131
vn -0.3012 0.9210 0.2472
vn 0.3878 0.9210 -0.0382
vn -0.3436 0.9210 0.1837
vn 0.3878 0.9210 0.0382
vn -0.3729 0.9210 0.1131
vn 0.3729 0.9210 0.1131
vn -0.3878 0.9210 0.0382
vn 0.3436 0.9210 0.1837
vn -0.3878 0.9210 -0.0382
vn 0.3012 0.9210 0.2472
vn -0.3729 0.9210 -0.1131
vn 0.2472 0.9210 0.3012
vn -0.3436 0.9210 -0.1837
vn 0.1837 0.9210 0.3436
vn 0.0382 0.9210 -0.3878
vn -0.3012 0.9210 -0.2472
vn 0.1131 0.9210 0.3729
vn 0.1131 0.9210 -0.3729
vn -0.2472 0.9210 -0.3012
vn 0.0382 0.9210 0.3878
vn 0.1837 0.9210 -0.3436
vn -0.1837 0.9210 -0.3436
vn -0.0382 0.9210 0.3878
vn 0.2472 0.9210 -0.3012
vn -0.1131 0.9210 -0.3729
vt 1.000000 0.500000
vt 1.000000 1.000000
vt 0.968750 1.000000
vt 0.968750 0.500000
vt 0.937500 1.000000
vt 0.937500 0.500000
vt 0.906250 1.000000
vt 0.906250 0.500000
vt 0.875000 1.000000
vt 0.875000 0.500000
vt 0.843750 1.000000
vt 0.843750 0.500000
vt 0.812500 1.000000
vt 0.812500 0.500000
vt 0.781250 1.000000
vt 0.781250 0.500000
vt 0.750000 1.000000
vt 0.750000 0.500000
vt 0.718750 1.000000
vt 0.718750 0.500000
vt 0.687500 1.000000
vt 0.687500 0.500000
vt 0.656250 1.000000
vt 0.656250 0.500000
vt 0.625000 1.000000
vt 0.625000 0.500000
vt 0.593750 1.000000
vt 0.593750 0.500000
vt 0.562500 1.000000
vt 0.562500 0.500000
vt 0.531250 1.000000
vt 0.531250 0.500000
vt 0.500000 1.000000
vt 0.500000 0.500000
vt 0.468750 1.000000
vt 0.468750 0.500000
vt 0.437500 1.000000
vt 0.437500 0.500000
vt 0.406250 1.000000
vt 0.406250 0.500000
vt 0.375000 1.000000
vt 0.375000 0.500000
vt 0.343750 1.000000
vt 0.343750 0.500000
vt 0.312500 1.000000
vt 0.312500 0.500000
vt 0.281250 1.000000
vt 0.281250 0.500000
vt 0.250000 1.000000
vt 0.250000 0.500000
vt 0.218750 1.000000
vt 0.218750 0.500000
vt 0.187500 1.000000
vt 0.187500 0.500000
vt 0.156250 1.000000
vt 0.156250 0.500000
vt 0.125000 1.000000
vt 0.125000 0.500000
vt 0.093750 1.000000
vt 0.093750 0.500000
vt 0.062500 1.000000
vt 0.062500 0.500000
vt 0.031250 1.000000
vt 0.031250 0.500000
vt 0.000000 1.000000
vt 0.000000 0.500000
vt 0.296822 0.485388
vt 0.250000 0.490000
vt 0.203178 0.485388
vt 0.158156 0.471731
vt 0.116663 0.449553
vt 0.080294 0.419706
vt 0.050447 0.383337
vt 0.028269 0.341844
vt 0.014612 0.296822
vt 0.010000 0.250000
vt 0.014612 0.203178
vt 0.028269 0.158156
vt 0.050447 0.116663
vt 0.080294 0.080294
vt 0.116663 0.050447
vt 0.158156 0.028269
vt 0.203178 0.014612
vt 0.250000 0.010000
vt 0.296822 0.014612
vt 0.341844 0.028269
vt 0.383337 0.050447
vt 0.419706 0.080294
vt 0.449553 0.116663
vt 0.471731 0.158156
vt 0.485388 0.203178
vt 0.490000 0.250000
vt 0.485388 0.296822
vt 0.471731 0.341844
vt 0.449553 0.383337
vt 0.419706 0.419706
vt 0.383337 0.449553
vt 0.341844 0.471731
s 0
f 1/1/1 2/2/1 4/3/1 3/4/1
f 3/4/2 4/3/2 6/5/2 5/6/2
f 5/6/3 6/5/3 8/7/3 7/8/3
f 7/8/4 8/7/4 10/9/4 9/10/4
f 9/10/5 10/9/5 12/11/5 11/12/5
f 11/12/6 12/11/6 14/13/6 13/14/6
f 13/14/7 14/13/7 16/15/7 15/16/7
f 15/16/8 16/15/8 18/17/8 17/18/8
f 17/18/9 18/17/9 20/19/9 19/20/9
f 19/20/10 20/19/10 22/21/10 21/22/10
f 21/22/11 22/21/11 24/23/11 23/24/11
f 23/24/12 24/23/12 26/25/12 25/26/12
f 25/26/13 26/25/13 28/27/13 27/28/13
f 27/28/14 28/27/14 30/29/14 29/30/14
f 29/30/15 30/29/15 32/31/15 31/32/15
f 31/32/16 32/31/16 34/33/16 33/34/16
f 33/34/17 34/33/17 36/35/17 35/36/17
f 35/36/18 36/35/18 38/37/18 37/38/18
f 37/38/19 38/37/19 40/39/19 39/40/19
f 39/40/20 40/39/20 42/41/20 41/42/20
f 41/42/21 42/41/21 44/43/21 43/44/21
f 43/44/22 44/43/22 46/45/22 45/46/22
f 45/46/23 46/45/23 48/47/23 47/48/23
f 47/48/24 48/47/24 50/49/24 49/50/24
f 49/50/25 50/49/25 52/51/25 51/52/25
f 51/52/26 52/51/26 54/53/26 53/54/26
f 53/54/27 54/53/27 56/55/27 55/56/27
f 55/56/28 56/55/28 58/57/28 57/58/28
f 57/58/29 58/57/29 60/59/29 59/60/29
f 59/60/30 60/59/30 62/61/30 61/62/30
f 12/11/31 10/9/31 69/9/31 70/11/31
f 61/62/32 62/61/32 64/63/32 63/64/32
f 63/64/33 64/63/33 2/65/33 1/66/33
f 69/9/20 68/7/20 100/7/20 101/9/20
f 30/29/34 28/27/34 78/27/34 79/29/34
f 48/47/35 46/45/35 87/45/35 88/47/35
f 4/3/36 2/2/36 66/2/36 65/3/36
f 2/65/37 64/63/37 96/63/37 66/65/37
f 22/21/38 20/19/38 74/19/38 75/21/38
f 40/39/39 38/37/39 83/37/39 84/39/39
f 58/57/40 56/55/40 92/55/40 93/57/40
f 14/13/41 12/11/41 70/11/41 71/13/41
f 32/31/42 30/29/42 79/29/42 80/31/42
f 50/49/43 48/47/43 88/47/43 89/49/43
f 6/5/44 4/3/44 65/3/44 67/5/44
f 24/23/45 22/21/45 75/21/45 76/23/45
f 42/41/46 40/39/46 84/39/46 85/41/46
f 60/59/47 58/57/47 93/57/47 94/59/47
f 16/15/48 14/13/48 71/13/48 72/15/48
f 34/33/49 32/31/49 80/31/49 81/33/49
f 52/51/50 50/49/50 89/49/50 90/51/50
f 8/7/51 6/5/51 67/5/51 68/7/51
f 26/25/52 24/23/52 76/23/52 77/25/52
f 44/43/53 42/41/53 85/41/53 86/43/53
f 62/61/54 60/59/54 94/59/54 95/61/54
f 18/17/55 16/15/55 72/15/55 73/17/55
f 36/35/56 34/33/56 81/33/56 82/35/56
f 54/53/57 52/51/57 90/51/57 91/53/57
f 10/9/58 8/7/58 68/7/58 69/9/58
f 28/27/59 26/25/59 77/25/59 78/27/59
f 46/45/60 44/43/60 86/43/60 87/45/60
f 64/63/61 62/61/61 95/61/61 96/63/61
f 20/19/62 18/17/62 73/17/62 74/19/62
f 38/37/63 36/35/63 82/35/63 83/37/63
f 56/55/64 54/53/64 91/53/64 92/55/64
f 109/25/65 108/23/65 140/23/65 141/25/65
f 96/63/15 95/61/15 127/61/15 128/63/15
f 83/37/2 82/35/2 114/35/2 115/37/2
f 70/11/21 69/9/21 101/9/21 102/11/21
f 66/65/16 96/63/16 128/63/16 98/65/16
f 84/39/3 83/37/3 115/37/3 116/39/3
f 71/13/22 70/11/22 102/11/22 103/13/22
f 85/41/4 84/39/4 116/39/4 117/41/4
f 72/15/23 71/13/23 103/13/23 104/15/23
f 86/43/5 85/41/5 117/41/5 118/43/5
f 73/17/24 72/15/24 104/15/24 105/17/24
f 87/45/6 86/43/6 118/43/6 119/45/6
f 74/19/25 73/17/25 105/17/25 106/19/25
f 88/47/7 87/45/7 119/45/7 120/47/7
f 75/21/26 74/19/26 106/19/26 107/21/26
f 89/49/8 88/47/8 120/47/8 121/49/8
f 76/23/27 75/21/27 107/21/27 108/23/27
f 90/51/9 89/49/9 121/49/9 122/51/9
f 77/25/28 76/23/28 108/23/28 109/25/28
f 91/53/10 90/51/10 122/51/10 123/53/10
f 78/27/29 77/25/29 109/25/29 110/27/29
f 92/55/11 91/53/11 123/53/11 124/55/11
f 79/29/30 78/27/30 110/27/30 111/29/30
f 65/3/17 66/2/17 98/2/17 97/3/17
f 93/57/12 92/55/12 124/55/12 125/57/12
f 80/31/32 79/29/32 111/29/32 112/31/32
f 67/5/18 65/3/18 97/3/18 99/5/18
f 94/59/13 93/57/13 125/57/13 126/59/13
f 81/33/33 80/31/33 112/31/33 113/33/33
f 68/7/19 67/5/19 99/5/19 100/7/19
f 95/61/14 94/59/14 126/59/14 127/61/14
f 82/35/1 81/33/1 113/33/1 114/35/1
f 144/31/15 143/29/15 175/29/15 176/31/15
f 123/53/66 122/51/66 154/51/66 155/53/66
f 110/27/67 109/25/67 141/25/67 142/27/67
f 124/55/68 123/53/68 155/53/68 156/55/68
f 111/29/69 110/27/69 142/27/69 143/29/69
f 97/3/70 98/2/70 130/2/70 129/3/70
f 125/57/71 124/55/71 156/55/71 157/57/71
f 112/31/72 111/29/72 143/29/72 144/31/72
f 99/5/73 97/3/73 129/3/73 131/5/73
f 126/59/74 125/57/74 157/57/74 158/59/74
f 113/33/75 112/31/75 144/31/75 145/33/75
f 100/7/76 99/5/76 131/5/76 132/7/76
f 127/61/77 126/59/77 158/59/77 159/61/77
f 114/35/78 113/33/78 145/33/78 146/35/78
f 101/9/79 100/7/79 132/7/79 133/9/79
f 128/63/80 127/61/80 159/61/80 160/63/80
f 115/37/81 114/35/81 146/35/81 147/37/81
f 102/11/82 101/9/82 133/9/82 134/11/82
f 98/65/83 128/63/83 160/63/83 130/65/83
f 116/39/84 115/37/84 147/37/84 148/39/84
f 103/13/85 102/11/85 134/11/85 135/13/85
f 117/41/86 116/39/86 148/39/86 149/41/86
f 104/15/87 103/13/87 135/13/87 136/15/87
f 118/43/88 117/41/88 149/41/88 150/43/88
f 105/17/89 104/15/89 136/15/89 137/17/89
f 119/45/90 118/43/90 150/43/90 151/45/90
f 106/19/91 105/17/91 137/17/91 138/19/91
f 120/47/92 119/45/92 151/45/92 152/47/92
f 107/21/93 106/19/93 138/19/93 139/21/93
f 121/49/94 120/47/94 152/47/94 153/49/94
f 108/23/95 107/21/95 139/21/95 140/23/95
f 122/51/96 121/49/96 153/49/96 154/51/96
f 179/37/97 178/35/97 210/35/97 211/37/97
f 131/5/2 129/3/2 161/3/2 163/5/2
f 158/59/29 157/57/29 189/57/29 190/59/29
f 145/33/16 144/31/16 176/31/16 177/33/16
f 132/7/3 131/5/3 163/5/3 164/7/3
f 159/61/30 158/59/30 190/59/30 191/61/30
f 146/35/17 145/33/17 177/33/17 178/35/17
f 133/9/4 132/7/4 164/7/4 165/9/4
f 160/63/32 159/61/32 191/61/32 192/63/32
f 147/37/18 146/35/18 178/35/18 179/37/18
f 134/11/5 133/9/5 165/9/5 166/11/5
f 130/65/33 160/63/33 192/63/33 162/65/33
f 148/39/19 147/37/19 179/37/19 180/39/19
f 135/13/6 134/11/6 166/11/6 167/13/6
f 149/41/20 148/39/20 180/39/20 181/41/20
f 136/15/7 135/13/7 167/13/7 168/15/7
f 150/43/21 149/41/21 181/41/21 182/43/21
f 137/17/8 136/15/8 168/15/8 169/17/8
f 151/45/22 150/43/22 182/43/22 183/45/22
f 138/19/9 137/17/9 169/17/9 170/19/9
f 152/47/23 151/45/23 183/45/23 184/47/23
f 139/21/10 138/19/10 170/19/10 171/21/10
f 153/49/24 152/47/24 184/47/24 185/49/24
f 140/23/11 139/21/11 171/21/11 172/23/11
f 154/51/25 153/49/25 185/49/25 186/51/25
f 141/25/12 140/23/12 172/23/12 173/25/12
f 155/53/26 154/51/26 186/51/26 187/53/26
f 142/27/13 141/25/13 173/25/13 174/27/13
f 156/55/27 155/53/27 187/53/27 188/55/27
f 143/29/14 142/27/14 174/27/14 175/29/14
f 129/3/1 130/2/1 162/2/1 161/3/1
f 157/57/28 156/55/28 188/55/28 189/57/28
f 193/67/98 194/68/98 224/69/98 223/70/98 222/71/98 221/72/98 220/73/98 219/74/98 218/75/98 217/76/98 216/77/98 215/78/98 214/79/98 213/80/98 212/81/98 211/82/98 210/83/98 209/84/98 208/85/98 207/86/98 206/87/98 205/88/98 204/89/98 203/90/98 202/91/98 201/92/98 200/93/98 199/94/98 198/95/98 197/96/98 196/97/98 195/98/98
f 166/11/99 165/9/99 197/9/99 198/11/99
f 162/65/100 192/63/100 224/63/100 194/65/100
f 180/39/101 179/37/101 211/37/101 212/39/101
f 167/13/102 166/11/102 198/11/102 199/13/102
f 181/41/103 180/39/103 212/39/103 213/41/103
f 168/15/104 167/13/104 199/13/104 200/15/104
f 182/43/105 181/41/105 213/41/105 214/43/105
f 169/17/106 168/15/106 200/15/106 201/17/106
f 183/45/107 182/43/107 214/43/107 215/45/107
f 170/19/108 169/17/108 201/17/108 202/19/108
f 184/47/109 183/45/109 215/45/109 216/47/109
f 171/21/110 170/19/110 202/19/110 203/21/110
f 185/49/111 184/47/111 216/47/111 217/49/111
f 172/23/112 171/21/112 203/21/112 204/23/112
f 186/51/113 185/49/113 217/49/113 218/51/113
f 173/25/114 172/23/114 204/23/114 205/25/114
f 187/53/115 186/51/115 218/51/115 219/53/115
f 174/27/116 173/25/116 205/25/116 206/27/116
f 188/55/117 187/53/117 219/53/117 220/55/117
f 175/29/118 174/27/118 206/27/118 207/29/118
f 161/3/119 162/2/119 194/2/119 193/3/119
f 189/57/120 188/55/120 220/55/120 221/57/120
f 176/31/121 175/29/121 207/29/121 208/31/121
f 163/5/122 161/3/122 193/3/122 195/5/122
f 190/59/123 189/57/123 221/57/123 222/59/123
f 177/33/124 176/31/124 208/31/124 209/33/124
f 164/7/125 163/5/125 195/5/125 196/7/125
f 191/61/126 190/59/126 222/59/126 223/61/126
f 178/35/127 177/33/127 209/33/127 210/35/127
f 165/9/128 164/7/128 196/7/128 197/9/128
f 192/63/129 191/61/129 223/61/129 224/63/129
