# Blender 4.5.5 LTS
# www.blender.org
o Diner
v -22.043051 0.000000 -10.000000
v -22.043051 3.000000 -10.000000
v -22.043051 0.000000 -18.000000
v -22.043051 3.000000 -18.000000
v -5.043051 0.000000 -10.000000
v -5.043051 3.000000 -10.000000
v -5.043051 0.000000 -18.000000
v -5.043051 3.000000 -18.000000
v -16.764614 5.274940 -12.483971
v -16.764614 5.274940 -15.516029
v -10.321488 5.274940 -15.516029
v -10.321488 5.274940 -12.483971
v -24.224596 2.700078 -8.973391
v -24.224596 2.700078 -19.026609
v -2.861506 2.700078 -19.026609
v -2.861506 2.700078 -8.973391
v -24.224596 3.097043 -8.973391
v -24.224596 3.097043 -19.026609
v -2.861506 3.097043 -19.026609
v -2.861506 3.097043 -8.973391
vn -1.0000 -0.0000 -0.0000
vn -0.0000 -0.0000 -1.0000
vn 1.0000 -0.0000 -0.0000
vn -0.0000 -0.0000 1.0000
vn -0.2802 0.9599 -0.0000
vn -0.0000 1.0000 -0.0000
vn 0.2802 0.9599 -0.0000
vn -0.0000 -0.9599 0.2804
vn -0.0000 -0.9599 -0.2804
vn -0.1362 -0.9907 -0.0000
vn -0.0000 0.8498 0.5272
vn -0.0000 0.8498 -0.5272
vn 0.1362 -0.9907 -0.0000
vt 0.375000 0.000000
vt 0.625000 0.000000
vt 0.625000 0.250000
vt 0.375000 0.250000
vt 0.625000 0.500000
vt 0.375000 0.500000
vt 0.625000 0.750000
vt 0.375000 0.750000
vt 0.625000 1.000000
vt 0.375000 1.000000
vt 0.875000 0.750000
vt 0.875000 0.500000
s 0
f 1/1/1 2/2/1 4/3/1 3/4/1
f 3/4/2 4/3/2 8/5/2 7/6/2
f 7/6/3 8/5/3 6/7/3 5/8/3
f 5/8/4 6/7/4 2/9/4 1/10/4
f 9/11/5 10/12/5 18/12/5 17/11/5
f 11/5/6 10/12/6 9/11/6 12/7/6
f 11/5/7 12/7/7 20/7/7 19/5/7
f 8/5/8 4/3/8 14/3/8 15/5/8
f 2/9/9 6/7/9 16/7/9 13/9/9
f 13/9/4 16/7/4 20/7/4 17/9/4
f 15/5/2 14/3/2 18/3/2 19/5/2
f 16/7/3 15/5/3 19/5/3 20/7/3
f 14/3/1 13/2/1 17/2/1 18/3/1
f 6/7/10 8/5/10 15/5/10 16/7/10
f 12/7/11 9/11/11 17/11/11 20/7/11
f 10/12/12 11/5/12 19/5/12 18/12/12
f 4/3/13 2/2/13 13/2/13 14/3/13
