# Blender 4.5.5 LTS
# www.blender.org
o Building_1
v -17.009418 1.999866 -37.966366
v -17.009418 13.932601 -37.966366
v -5.076684 1.999866 -37.966370
v -5.076684 6.334090 -37.966370
v -17.009418 1.999866 -26.033630
v -17.009418 13.932601 -26.033630
v -5.076683 1.999866 -26.033632
v -5.076683 11.684150 -26.033632
v -17.009418 4.568645 -37.966366
v -5.076684 4.568645 -37.966370
v -5.076683 4.568645 -26.033632
v -17.009418 4.568645 -26.033630
v -5.076683 1.999866 -30.917206
v -5.076683 9.413906 -30.917206
v -17.009418 1.999866 -30.917204
v -17.009418 13.932601 -30.917204
v -17.009418 4.568645 -30.917204
v -5.076683 4.568645 -30.917206
v -5.076683 1.999866 -32.551712
v -17.009418 13.932601 -32.551712
v -17.009418 4.568645 -32.551712
v -5.076683 8.136174 -32.551712
v -17.009418 1.999866 -32.551712
v -5.076683 4.568645 -32.551712
v -5.263807 4.568645 -37.749378
v -5.263806 4.568645 -26.350256
v -5.263806 2.076433 -26.350256
v -5.263807 2.076433 -37.749378
v -16.967251 4.568645 -37.749374
v -16.967251 4.568645 -26.350254
v -16.967251 2.076433 -26.350254
v -16.967251 2.076433 -37.749374
v -13.261843 1.999866 -37.966366
v -13.261843 6.334090 -37.966366
v -13.261842 1.999866 -26.033632
v -13.261842 13.932601 -26.033632
v -13.261842 4.568645 -26.033632
v -13.261843 4.568645 -37.966366
v -13.261843 11.153535 -30.917204
v -13.261843 8.136174 -32.551712
v -14.838993 1.999866 -37.966366
v -14.838993 13.932601 -26.033632
v -14.838993 4.568645 -26.033632
v -14.838993 13.932601 -30.917204
v -14.838993 13.932601 -32.551712
v -14.838993 10.392264 -37.966366
v -14.838993 1.999866 -26.033632
v -14.838993 4.568645 -37.966366
v -14.838993 -0.191766 -37.966366
v -17.009418 -0.191766 -37.966366
v -5.076683 -0.191766 -32.551712
v -5.076684 -0.191766 -37.966370
v -13.261842 -0.191766 -26.033632
v -5.076683 -0.191766 -26.033632
v -17.009418 -0.191766 -30.917204
v -17.009418 -0.191766 -26.033630
v -5.076683 -0.191766 -30.917206
v -17.009418 -0.191766 -32.551712
v -14.838993 -0.191766 -30.917204
v -14.838993 -0.191766 -32.551712
v -13.261843 -0.191766 -37.966366
v -14.838993 -0.191766 -26.033632
v -13.261843 -0.191766 -30.917204
v -13.261843 -0.191766 -32.551712
vn -0.0000 -0.0000 -1.0000
vn 1.0000 -0.0000 -0.0000
vn -0.0000 -0.0000 1.0000
vn -1.0000 -0.0000 -0.0000
vn 0.6127 0.7512 -0.2456
vn -0.9992 -0.0000 -0.0409
vn -0.0000 1.0000 -0.0000
vn -0.9994 -0.0000 0.0360
vn -0.0000 -1.0000 -0.0000
vn 0.3787 0.9255 -0.0000
vn 0.0642 0.6044 -0.7941
vn 0.2115 0.8682 -0.4488
vn -0.0000 0.9488 -0.3158
vn 0.8942 0.3289 -0.3036
vn 0.6465 0.7338 -0.2088
vn 0.9418 0.3015 -0.1487
vt 0.428818 0.139927
vt 0.625000 0.139927
vt 0.625000 0.250000
vt 0.428818 0.250000
vt 0.428818 0.397685
vt 0.625000 0.397685
vt 0.625000 0.500000
vt 0.428818 0.500000
vt 0.428818 0.643115
vt 0.625000 0.643115
vt 0.625000 0.750000
vt 0.428818 0.750000
vt 0.428818 0.886559
vt 0.625000 0.886559
vt 0.625000 1.000000
vt 0.428818 1.000000
vt 0.375000 0.886559
vt 0.375000 1.000000
vt 0.761559 0.643115
vt 0.875000 0.643115
vt 0.875000 0.750000
vt 0.761559 0.750000
vt 0.375000 0.643115
vt 0.375000 0.750000
vt 0.375000 0.397685
vt 0.375000 0.500000
vt 0.375000 0.139927
vt 0.375000 0.250000
vt 0.428818 0.852315
vt 0.375000 0.852315
vt 0.727315 0.643115
vt 0.727315 0.750000
vt 0.375000 0.106885
vt 0.625000 0.852315
vt 0.428818 0.363441
vt 0.625000 0.363441
vt 0.375000 0.363441
vt 0.272685 0.500000
vt 0.238441 0.500000
vt 0.727315 0.500000
vt 0.761559 0.500000
vt 0.761559 0.610073
vt 0.727315 0.610073
vt 0.375000 0.610073
vt 0.625000 0.610073
vt 0.428818 0.106885
vt 0.428818 0.610073
vt 0.875000 0.500000
vt 0.875000 0.610073
vt 0.625000 0.106885
vt 0.428818 0.000000
vt 0.625000 0.000000
vt 0.375000 0.000000
vt 0.272685 0.643115
vt 0.272685 0.750000
vt 0.238441 0.643115
vt 0.238441 0.750000
vt 0.125000 0.643115
vt 0.125000 0.750000
vt 0.125000 0.500000
vt 0.238441 0.610073
vt 0.125000 0.610073
vt 0.272685 0.610073
s 0
f 38/1/1 34/2/1 4/3/1 10/4/1
f 18/5/2 14/6/2 8/7/2 11/8/2
f 43/9/3 42/10/3 6/11/3 12/12/3
f 21/13/4 20/14/4 2/15/4 9/16/4
f 23/17/4 1/18/4 50/18/4 58/17/4
f 45/19/5 46/20/5 2/21/5 20/22/5
f 23/17/4 21/13/4 9/16/4 1/18/4
f 47/23/3 43/9/3 12/12/3 5/24/3
f 13/25/2 18/5/2 11/8/2 7/26/2
f 33/27/1 38/1/1 10/4/1 3/28/1
f 18/5/6 13/25/6 27/25/6 26/5/6
f 5/24/4 12/12/4 17/29/4 15/30/4
f 42/10/7 44/31/7 16/32/7 6/11/7
f 41/33/1 33/27/1 61/27/1 49/33/1
f 12/12/4 6/11/4 16/34/4 17/29/4
f 24/35/2 22/36/2 14/6/2 18/5/2
f 10/4/2 4/3/2 22/36/2 24/35/2
f 15/30/4 23/17/4 58/17/4 55/30/4
f 3/28/2 10/4/2 24/35/2 19/37/2
f 15/30/4 17/29/4 21/13/4 23/17/4
f 44/31/7 45/19/7 20/22/7 16/32/7
f 17/29/4 16/34/4 20/14/4 21/13/4
f 27/38/7 28/39/7 32/39/7 31/38/7
f 19/37/8 24/35/8 25/35/8 28/37/8
f 24/35/9 18/5/9 26/5/9 25/35/9
f 13/38/10 19/39/10 28/39/10 27/38/10
f 32/37/2 29/35/2 30/5/2 31/25/2
f 25/35/9 26/5/9 30/5/9 29/35/9
f 28/37/3 25/35/3 29/35/3 32/37/3
f 26/5/1 27/25/1 31/25/1 30/5/1
f 14/40/11 22/41/11 40/42/11 39/43/11
f 19/39/2 13/38/2 57/38/2 51/39/2
f 35/44/3 47/23/3 62/23/3 53/44/3
f 8/7/12 14/40/12 39/43/12 36/45/12
f 41/33/1 48/46/1 38/1/1 33/27/1
f 7/26/3 11/8/3 37/47/3 35/44/3
f 22/41/13 4/48/13 34/49/13 40/42/13
f 3/28/2 19/37/2 51/37/2 52/28/2
f 11/8/3 8/7/3 36/45/3 37/47/3
f 48/46/1 46/50/1 34/2/1 38/1/1
f 9/51/1 2/52/1 46/50/1 48/46/1
f 1/53/1 9/51/1 48/46/1 41/33/1
f 39/43/14 40/42/14 45/19/14 44/31/14
f 7/26/3 35/44/3 53/44/3 54/26/3
f 1/53/1 41/33/1 49/33/1 50/53/1
f 36/45/15 39/43/15 44/31/15 42/10/15
f 35/44/3 37/47/3 43/9/3 47/23/3
f 40/42/16 34/49/16 46/20/16 45/19/16
f 5/24/4 15/30/4 55/30/4 56/24/4
f 37/47/3 36/45/3 42/10/3 43/9/3
f 59/54/9 62/23/9 56/24/9 55/55/9
f 60/56/9 59/54/9 55/55/9 58/57/9
f 49/58/9 60/56/9 58/57/9 50/59/9
f 52/60/9 51/39/9 64/61/9 61/62/9
f 51/39/9 57/38/9 63/63/9 64/61/9
f 57/38/9 54/26/9 53/44/9 63/63/9
f 61/62/9 64/61/9 60/56/9 49/58/9
f 64/61/9 63/63/9 59/54/9 60/56/9
f 63/63/9 53/44/9 62/23/9 59/54/9
f 33/27/1 3/28/1 52/28/1 61/27/1
f 47/23/3 5/24/3 56/24/3 62/23/3
f 13/25/2 7/26/2 54/26/2 57/25/2
