# Blender 4.5.5 LTS
# www.blender.org
o Road
v -42.341385 -0.012272 6.490953
v -42.341385 0.182947 6.490953
v -42.341385 -0.012272 -3.566258
v -42.341385 0.182947 -3.566258
v 4.036969 -0.012272 6.490953
v 4.036969 0.182947 6.490953
v 4.044457 -0.012272 -3.566258
v 4.036969 0.182947 -3.566258
v 14.036968 0.182947 -3.566258
v 14.036968 -0.012272 -3.566258
v 14.036968 -0.012272 6.490953
v 14.036968 0.182947 6.490953
v 4.036969 0.182947 40.154625
v 4.036969 -0.012272 40.154625
v 14.036968 0.182947 40.154625
v 14.036968 -0.012272 40.490952
v 4.036969 0.182947 49.154625
v 4.137232 -0.012272 49.154625
v 14.036968 0.182947 49.154625
v 14.036968 -0.012272 49.154625
v -19.862768 0.182947 40.154625
v -19.862768 -0.012272 40.154625
v -19.862768 0.182947 49.154625
v -19.862768 -0.012272 49.154625
v 4.036969 0.182947 -50.090599
v 4.044457 -0.012272 -50.090599
v 14.036968 0.182947 -50.090599
v 14.036968 -0.012272 -50.090599
v 39.977600 0.182947 -3.566258
v 39.977600 -0.012272 -3.566258
v 39.977600 -0.012272 6.490953
v 39.977600 0.182947 6.490953
v -42.216351 -0.012272 8.218406
v -42.216351 0.182947 8.218406
v 2.179858 0.182947 8.218406
v 2.179858 -0.012272 8.218406
v 2.179858 0.182947 40.149323
v 2.179858 -0.012272 40.149323
v -42.359241 0.182947 -5.566258
v -42.359241 -0.012272 -5.566258
v 2.049306 -0.012272 -5.566258
v 2.036969 0.182947 -5.566258
v 2.036969 0.182947 -50.090599
v 2.049306 -0.012272 -50.090599
v 14.036968 0.182947 8.147251
v 14.036968 -0.012272 8.147251
v 39.977600 0.182947 8.147251
v 39.977600 -0.012272 8.147251
v 15.811045 0.182947 -5.340334
v 15.811045 -0.012272 -5.340334
v 15.811045 0.182947 -50.086143
v 15.811045 -0.012272 -50.086143
v 39.975388 0.182947 -5.340334
v 39.975388 -0.012272 -5.340334
vn -0.0000 -1.0000 -0.0000
vn -0.0029 -0.0000 1.0000
vn -1.0000 -0.0000 0.0089
vn 1.0000 -0.0000 -0.0000
vn -0.0000 -0.0000 1.0000
vn -0.0000 -0.0000 -1.0000
vn 0.9993 0.0383 -0.0000
vn -0.0000 1.0000 -0.0000
vn -1.0000 -0.0000 -0.0000
vn -0.9974 -0.0000 0.0722
vn -0.9980 -0.0631 -0.0000
vn 0.0025 -0.0000 -1.0000
vn 1.0000 -0.0000 -0.0012
vn -0.0319 -0.0000 -0.9995
vt 0.868289 0.707433
vt 0.894023 0.356598
vt 0.887744 0.357221
vt 0.893856 0.356165
vt 0.887902 0.356072
vt 0.867275 0.712249
vt 0.868289 0.714783
vt 0.863206 0.000139
vt 0.864461 0.000139
vt 0.864462 0.300448
vt 0.863207 0.303448
vt 0.867428 0.493317
vt 0.864847 0.000139
vt 0.873260 0.020557
vt 0.873102 0.491661
vt 0.864463 0.469944
vt 0.863208 0.469050
vt 0.863207 0.380736
vt 0.864462 0.380736
vt 0.864461 0.683152
vt 0.863206 0.683152
vt 0.864740 0.493948
vt 0.865995 0.493948
vt 0.865995 0.707155
vt 0.864740 0.707155
vt 0.865754 0.715797
vt 0.873537 0.892168
vt 0.873537 0.465180
vt 0.889819 0.481462
vt 0.889524 0.621973
vt 0.857726 0.817303
vt 0.851720 0.817301
vt 0.851499 0.000142
vt 0.862929 0.000139
vt 0.851499 0.870357
vt 0.854785 0.817586
vt 0.855137 0.866662
vt 0.884511 0.001209
vt 0.883254 0.290845
vt 0.875879 0.289789
vt 0.878885 0.000139
vt 0.864740 0.020805
vt 0.867605 0.491751
vt 0.894023 0.019510
vt 0.884796 0.019885
vt 0.873260 0.493671
vt 0.873013 0.000797
vt 0.884949 0.000139
vt 0.893634 0.001190
vt 0.864740 0.713262
vt 0.866768 0.718332
vt 0.880606 0.289829
vt 0.884519 0.000882
vt 0.883197 0.294298
vt 0.873537 0.289789
vt 0.878906 0.001280
vt 0.890410 0.481463
vt 0.889971 0.621982
vt 0.855440 0.866618
vt 0.854670 0.817602
vt 0.859151 0.870134
vt 0.904515 0.891112
vt 0.906731 0.465311
vt 0.883381 0.450983
vt 0.884519 0.451514
vt 0.878269 0.464903
s 0
f 26/1/1 7/1/1 41/1/1 44/1/1
f 14/2/2 13/3/2 37/4/2 38/5/2
f 3/6/3 4/7/3 39/7/3 40/6/3
f 11/8/4 12/9/4 15/10/4 16/11/4
f 1/12/1 5/13/1 36/14/1 33/15/1
f 17/16/5 18/17/5 20/18/5 19/19/5
f 18/17/5 17/16/5 23/20/5 24/21/5
f 16/11/4 15/10/4 19/19/4 20/18/4
f 13/22/6 14/23/6 22/24/6 21/25/6
f 26/1/7 25/26/7 8/26/7 7/1/7
f 27/27/8 9/28/8 49/29/8 51/30/8
f 30/31/4 29/32/4 32/33/4 31/34/4
f 9/35/8 29/32/8 53/36/8 49/37/8
f 32/38/8 12/39/8 45/40/8 47/41/8
f 36/14/5 35/42/5 34/43/5 33/15/5
f 35/44/9 36/45/9 38/5/9 37/4/9
f 2/46/10 1/12/10 33/15/10 34/43/10
f 6/47/8 2/46/8 34/43/8 35/42/8
f 13/3/8 6/48/8 35/44/8 37/4/8
f 5/49/1 14/2/1 38/5/1 36/45/1
f 40/6/6 39/7/6 42/26/6 41/50/6
f 41/50/11 42/26/11 43/26/11 44/50/11
f 7/1/1 3/1/1 40/1/1 41/1/1
f 8/26/8 25/26/8 43/26/8 42/26/8
f 4/51/8 8/26/8 42/26/8 39/51/8
f 25/26/6 26/50/6 44/50/6 43/26/6
f 45/40/5 46/52/5 48/53/5 47/41/5
f 12/39/9 11/54/9 46/52/9 45/40/9
f 11/55/1 31/56/1 48/53/1 46/52/1
f 31/56/4 32/38/4 47/41/4 48/53/4
f 49/29/4 50/57/4 52/58/4 51/30/4
f 50/59/6 49/37/6 53/36/6 54/60/6
f 30/31/1 10/61/1 50/59/1 54/60/1
f 28/62/12 27/27/12 51/30/12 52/58/12
f 29/32/13 30/31/13 54/60/13 53/36/13
f 10/63/1 28/62/1 52/58/1 50/57/1
f 2/46/6 6/47/6 5/13/6 1/12/6
f 3/1/5 7/1/5 8/26/5 4/51/5
f 6/48/4 13/3/4 14/2/4 5/49/4
f 12/64/14 32/38/14 31/56/14 11/65/14 46/66/14
o Road.001
v -41.963692 0.099561 6.490953
v -41.963692 0.099561 -3.566258
v 4.080020 0.099561 6.490953
v 4.080020 0.099561 -3.566258
v 14.080019 0.099561 -3.566258
v 14.080019 0.099561 6.490953
v 4.080020 0.099561 40.154625
v 14.080019 0.099561 40.154625
v 4.080020 0.099561 49.154625
v 14.080019 0.099561 49.154625
v -19.819717 0.099561 40.154625
v -19.819717 0.099561 49.154625
v 4.080020 0.099561 -50.090599
v 14.080019 0.099561 -50.090599
v 40.020649 0.099561 -3.566258
v 40.020649 0.099561 6.490953
vn -0.0000 1.0000 -0.0000
vt 1.361323 0.047022
vt 1.360396 0.447604
vt 0.011889 0.444484
vt 0.012816 0.043902
vt 0.011673 0.036954
vt 1.788156 0.063535
vt 1.782350 0.451568
vt 0.005867 0.424987
vt 0.017144 0.443939
vt 0.016195 0.047714
vt 1.038179 0.045265
vt 1.039128 0.441489
vt 0.434510 0.046330
vt 0.428289 0.462097
vt 0.014887 0.455911
vt 0.021108 0.040145
vt 0.474081 0.444038
vt 0.024816 0.442998
vt 0.025752 0.038660
vt 0.475016 0.039700
vt 0.029959 0.424004
vt 0.030813 0.055148
vt 1.010318 0.057415
vt 1.009465 0.426270
vt -0.000723 0.445899
vt 0.005155 0.053011
vt 1.833040 0.080361
vt 1.827162 0.473248
s 0
f 60/67/15 57/68/15 61/69/15 62/70/15
f 58/71/15 56/72/15 55/73/15 57/74/15
f 59/75/15 60/76/15 70/77/15 69/78/15
f 58/79/15 57/80/15 60/81/15 59/82/15
f 62/83/15 61/84/15 63/85/15 64/86/15
f 63/87/15 61/88/15 65/89/15 66/90/15
f 58/91/15 59/92/15 68/93/15 67/94/15
