# Blender 4.5.5 LTS
# www.blender.org
o Wall
v -40.928551 -0.902259 -49.928696
v -40.928551 22.109245 -49.928696
v -40.928551 22.109245 -52.482193
v 39.506100 -0.902259 -49.928696
v 39.506100 22.109245 -49.928696
v 39.506100 22.109245 -52.482193
v -42.549438 22.109245 -49.928696
v -42.549438 22.109245 -52.482193
v -40.860401 -0.902259 49.830360
v -40.860401 22.109245 49.830360
v -42.635464 22.109245 49.830360
v 42.026764 22.109245 -52.482193
v 42.026764 22.109245 -49.928696
v 39.506100 22.109245 49.830360
v 39.506100 -0.902259 49.830360
v 42.026764 22.109245 49.830360
v 39.506100 22.109245 52.462959
v 42.026764 22.109245 52.462959
v -40.860401 22.109245 52.462959
v -42.635464 22.109245 52.462959
vn -0.0000 1.0000 -0.0000
vn -0.0000 -0.0000 1.0000
vn 1.0000 -0.0000 -0.0007
vn -1.0000 -0.0000 -0.0000
vn -0.0000 -0.0000 -1.0000
vt 0.875000 0.750000
vt 0.875000 0.500000
vt 0.375000 0.750000
vt 0.625000 0.750000
vt 0.625000 1.000000
vt 0.375000 1.000000
vt 0.625000 0.500000
s 0
f 2/1/1 3/2/1 8/2/1 7/1/1
f 4/3/2 5/4/2 2/5/2 1/6/2
f 6/7/1 3/2/1 2/1/1 5/4/1
f 2/1/1 7/1/1 11/1/1 10/1/1
f 1/6/3 2/5/3 10/5/3 9/6/3
f 5/4/4 4/3/4 15/3/4 14/4/4
f 6/7/1 5/4/1 13/4/1 12/7/1
f 13/4/1 5/4/1 14/4/1 16/4/1
f 16/4/1 14/4/1 17/4/1 18/4/1
f 14/4/5 15/3/5 9/3/5 10/4/5
f 17/4/1 14/4/1 10/4/1 19/4/1
f 19/4/1 10/4/1 11/4/1 20/4/1
